<svg width="24" height="24" viewBox="0 0 24 24" fill="none" xmlns="http://www.w3.org/2000/svg">
<circle cx="12" cy="12" r="12" fill="#50E3C2"/>
<path fill-rule="evenodd" clip-rule="evenodd" d="M14.4243 12.4419C13.0854 13.7809 10.9145 13.7809 9.5756 12.4419L9.51256 12.3789L4.59985 17.2916C4.76137 17.379 4.94632 17.4286 5.14286 17.4286H18.8571C19.0537 17.4286 19.2387 17.379 19.4002 17.2916L14.4874 12.3788L14.4243 12.4419ZM15.4289 11.4374L20 16.0085V7.14286C20 7.05722 19.9906 6.97378 19.9727 6.89352L15.4289 11.4374ZM4 16.0086L8.57115 11.4375L4.02727 6.89358C4.00941 6.97382 4 7.05724 4 7.14286V16.0086ZM5.14286 6C5.10211 6 5.06187 6.00213 5.02223 6.00629L10.3837 11.3678C11.2763 12.2604 12.7236 12.2604 13.6162 11.3678L18.9777 6.00628C18.9381 6.00213 18.8979 6 18.8571 6H5.14286Z" fill="white"/>
</svg>
