<svg width="24" height="24" viewBox="0 0 24 24" fill="none" xmlns="http://www.w3.org/2000/svg">
<path fill-rule="evenodd" clip-rule="evenodd" d="M24 12C24 18.6274 18.6274 24 12 24C5.37258 24 0 18.6274 0 12C0 5.37258 5.37258 0 12 0C18.6274 0 24 5.37258 24 12ZM17.1592 8.48487C17.7195 8.41791 18.2533 8.26903 18.75 8.04874C18.3787 8.60417 17.9091 9.092 17.368 9.48249C17.3733 9.60125 17.376 9.7207 17.376 9.84079C17.376 13.5008 14.5901 17.7212 9.49569 17.7212C7.93158 17.7212 6.47571 17.2627 5.25 16.4768C5.46668 16.5024 5.68716 16.5155 5.9107 16.5155C7.20831 16.5155 8.40257 16.0727 9.35047 15.3299C8.13848 15.3075 7.11563 14.5068 6.7632 13.4064C6.93228 13.4387 7.1058 13.4561 7.28426 13.4561C7.53689 13.4561 7.78156 13.4222 8.014 13.3589C6.74695 13.1045 5.79224 11.9851 5.79224 10.6431C5.79224 10.6315 5.79224 10.6199 5.79244 10.6083C6.1659 10.8158 6.59294 10.9403 7.04699 10.9547C6.30382 10.458 5.81481 9.61029 5.81481 8.6494C5.81481 8.14182 5.95139 7.66605 6.1898 7.25698C7.55585 8.93265 9.59667 10.0353 11.8986 10.1508C11.8514 9.9481 11.8268 9.7367 11.8268 9.51963C11.8268 7.99008 13.067 6.75 14.5966 6.75C15.3932 6.75 16.113 7.08638 16.6183 7.62467C17.2491 7.50043 17.8419 7.26992 18.377 6.95256C18.1702 7.59929 17.7311 8.14207 17.1592 8.48487Z" fill="#1DA1F2"/>
<path fill-rule="evenodd" clip-rule="evenodd" d="M18.75 8.04874C18.2533 8.26903 17.7195 8.41791 17.1592 8.48487C17.7311 8.14207 18.1702 7.59929 18.377 6.95256C17.8419 7.26992 17.2491 7.50043 16.6183 7.62467C16.113 7.08638 15.3932 6.75 14.5966 6.75C13.067 6.75 11.8268 7.99008 11.8268 9.51963C11.8268 9.7367 11.8514 9.9481 11.8986 10.1508C9.59667 10.0353 7.55585 8.93265 6.1898 7.25698C5.95139 7.66605 5.81481 8.14182 5.81481 8.6494C5.81481 9.61029 6.30382 10.458 7.04699 10.9547C6.59294 10.9403 6.1659 10.8158 5.79244 10.6083C5.79224 10.6199 5.79224 10.6315 5.79224 10.6431C5.79224 11.9851 6.74695 13.1045 8.014 13.3589C7.78156 13.4222 7.53689 13.4561 7.28426 13.4561C7.1058 13.4561 6.93228 13.4387 6.7632 13.4064C7.11563 14.5068 8.13848 15.3075 9.35047 15.3299C8.40257 16.0727 7.20831 16.5155 5.9107 16.5155C5.68716 16.5155 5.46668 16.5024 5.25 16.4768C6.47571 17.2627 7.93158 17.7212 9.49569 17.7212C14.5901 17.7212 17.376 13.5008 17.376 9.84079C17.376 9.7207 17.3733 9.60125 17.368 9.48249C17.9091 9.092 18.3787 8.60417 18.75 8.04874Z" fill="white"/>
</svg>
